<?xml version="1.0" standalone="no"?>
<!DOCTYPE svg PUBLIC "-//W3C//DTD SVG 20010904//EN"
 "http://www.w3.org/TR/2001/REC-SVG-20010904/DTD/svg10.dtd">
<svg version="1.0" xmlns="http://www.w3.org/2000/svg"
 width="433.000000pt" height="433.000000pt" viewBox="0 0 433.000000 433.000000"
 preserveAspectRatio="xMidYMid meet">

<g transform="translate(0.000000,433.000000) scale(0.100000,-0.100000)"
fill="#000000" stroke="none">
<path d="M1450 4200 l0 -120 -360 0 -360 0 0 -120 0 -120 -120 0 -120 0 0
-120 0 -120 -120 0 -120 0 0 -240 0 -240 -120 0 -120 0 0 -840 0 -840 120 0
120 0 0 -240 0 -240 120 0 120 0 0 -120 0 -120 120 0 120 0 0 -120 0 -120 120
0 120 0 0 -120 0 -120 240 0 240 0 0 -120 0 -120 720 0 720 0 0 120 0 120 240
0 240 0 0 120 0 120 120 0 120 0 0 120 0 120 120 0 120 0 0 120 0 120 120 0
120 0 0 240 0 240 120 0 120 0 0 720 0 720 -120 0 -120 0 0 360 0 360 -120 0
-120 0 0 120 0 120 -120 0 -120 0 0 120 0 120 -360 0 -360 0 0 120 0 120 -720
0 -720 0 0 -120z m-720 -720 l0 -120 -120 0 -120 0 0 120 0 120 120 0 120 0 0
-120z m2400 -120 l0 -240 -240 0 -240 0 0 240 0 240 240 0 240 0 0 -240z
m-1680 -600 l0 -120 120 0 120 0 0 120 0 120 120 0 120 0 0 -120 0 -120 120 0
120 0 0 -240 0 -240 -120 0 -120 0 0 240 0 240 -120 0 -120 0 0 -240 0 -240
-120 0 -120 0 0 240 0 240 -120 0 -120 0 0 -240 0 -240 -120 0 -120 0 0 240 0
240 120 0 120 0 0 120 0 120 120 0 120 0 0 -120z m480 -1440 l0 -360 600 0
600 0 0 120 0 120 240 0 240 0 0 120 0 120 120 0 120 0 0 -240 0 -240 -120 0
-120 0 0 -120 0 -120 -120 0 -120 0 0 -120 0 -120 -240 0 -240 0 0 -120 0
-120 -720 0 -720 0 0 120 0 120 -240 0 -240 0 0 120 0 120 -120 0 -120 0 0
120 0 120 -120 0 -120 0 0 240 0 240 120 0 120 0 0 -120 0 -120 120 0 120 0 0
-120 0 -120 120 0 120 0 0 360 0 360 360 0 360 0 0 -360z"/>
<path d="M1210 840 l0 -120 360 0 360 0 0 120 0 120 -360 0 -360 0 0 -120z"/>
</g>
</svg>
