<?xml version="1.0" standalone="no"?>
<!DOCTYPE svg PUBLIC "-//W3C//DTD SVG 20010904//EN"
 "http://www.w3.org/TR/2001/REC-SVG-20010904/DTD/svg10.dtd">
<svg version="1.0" xmlns="http://www.w3.org/2000/svg"
 width="423.000000pt" height="423.000000pt" viewBox="0 0 423.000000 423.000000"
 preserveAspectRatio="xMidYMid meet">

<g transform="translate(0.000000,423.000000) scale(0.100000,-0.100000)"
fill="#000000" stroke="none">
<path d="M1420 4100 l0 -120 -235 0 -235 0 0 -115 0 -115 -115 0 -115 0 0
-120 0 -120 -120 0 -120 0 0 -115 0 -115 -115 0 -115 0 0 -235 0 -235 -120 0
-120 0 0 -705 0 -705 120 0 120 0 0 -230 0 -230 115 0 115 0 0 -120 0 -120
120 0 120 0 0 -115 0 -115 115 0 115 0 0 -120 0 -120 235 0 235 0 0 -115 0
-115 705 0 705 0 0 115 0 115 230 0 230 0 0 120 0 120 120 0 120 0 0 115 0
115 115 0 115 0 0 120 0 120 120 0 120 0 0 230 0 230 115 0 115 0 0 705 0 705
-115 0 -115 0 0 235 0 235 -120 0 -120 0 0 115 0 115 -115 0 -115 0 0 120 0
120 -120 0 -120 0 0 115 0 115 -230 0 -230 0 0 120 0 120 -705 0 -705 0 0
-120z m1410 -235 l0 -115 230 0 230 0 0 -120 0 -120 120 0 120 0 0 -115 0
-115 115 0 115 0 0 -120 0 -120 -115 0 -115 0 0 -115 0 -115 -120 0 -120 0 0
-235 0 -235 -115 0 -115 0 0 -470 0 -470 -350 0 -350 0 0 590 0 590 115 0 115
0 0 465 0 465 -115 0 -115 0 0 120 0 120 -355 0 -355 0 0 -120 0 -120 -115 0
-115 0 0 -115 0 -115 115 0 115 0 0 -235 0 -235 -115 0 -115 0 0 -115 0 -115
-235 0 -235 0 0 -470 0 -470 -235 0 -235 0 0 700 0 700 120 0 120 0 0 235 0
235 115 0 115 0 0 120 0 120 235 0 235 0 0 115 0 115 705 0 705 0 0 -115z
m-940 -2575 l0 -350 700 0 700 0 0 115 0 115 235 0 235 0 0 -115 0 -115 -115
0 -115 0 0 -120 0 -120 -120 0 -120 0 0 -115 0 -115 -230 0 -230 0 0 -120 0
-120 -705 0 -705 0 0 120 0 120 -235 0 -235 0 0 115 0 115 -115 0 -115 0 0
120 0 120 -120 0 -120 0 0 115 0 115 235 0 235 0 0 -115 0 -115 120 0 120 0 0
350 0 350 350 0 350 0 0 -350z"/>
<path d="M1190 820 l0 -120 350 0 350 0 0 120 0 120 -350 0 -350 0 0 -120z"/>
</g>
</svg>
