<?xml version="1.0" standalone="no"?>
<!DOCTYPE svg PUBLIC "-//W3C//DTD SVG 20010904//EN"
 "http://www.w3.org/TR/2001/REC-SVG-20010904/DTD/svg10.dtd">
<svg version="1.0" xmlns="http://www.w3.org/2000/svg"
 width="426.000000pt" height="426.000000pt" viewBox="0 0 426.000000 426.000000"
 preserveAspectRatio="xMidYMid meet">

<g transform="translate(0.000000,426.000000) scale(0.100000,-0.100000)"
fill="#000000" stroke="none">
<path d="M1430 4135 l0 -115 -475 0 -475 0 0 -120 0 -120 -120 0 -120 0 0
-120 0 -120 -115 0 -115 0 0 -1060 0 -1060 115 0 115 0 0 -235 0 -235 120 0
120 0 0 -120 0 -120 120 0 120 0 0 -120 0 -120 115 0 115 0 0 -115 0 -115 240
0 240 0 0 -120 0 -120 705 0 705 0 0 120 0 120 235 0 235 0 0 115 0 115 120 0
120 0 0 120 0 120 120 0 120 0 0 120 0 120 115 0 115 0 0 235 0 235 120 0 120
0 0 825 0 825 -120 0 -120 0 0 235 0 235 -115 0 -115 0 0 120 0 120 -240 0
-240 0 0 120 0 120 -235 0 -235 0 0 115 0 115 -705 0 -705 0 0 -115z m1410
-235 l0 -120 235 0 235 0 0 -475 0 -475 -115 0 -115 0 0 -115 0 -115 -235 0
-235 0 0 -120 0 -120 -120 0 -120 0 0 -115 0 -115 120 0 120 0 0 -120 0 -120
-120 0 -120 0 0 -120 0 -120 -235 0 -235 0 0 -350 0 -350 705 0 705 0 0 115 0
115 240 0 240 0 0 -115 0 -115 -120 0 -120 0 0 -120 0 -120 -120 0 -120 0 0
-120 0 -120 -235 0 -235 0 0 -115 0 -115 -705 0 -705 0 0 115 0 115 -240 0
-240 0 0 120 0 120 -115 0 -115 0 0 120 0 120 -120 0 -120 0 0 115 0 115 235
0 235 0 0 -115 0 -115 120 0 120 0 0 350 0 350 -235 0 -235 0 0 120 0 120
-120 0 -120 0 0 120 0 120 -120 0 -120 0 0 115 0 115 120 0 120 0 0 -115 0
-115 235 0 235 0 0 115 0 115 120 0 120 0 0 235 0 235 -120 0 -120 0 0 355 0
355 120 0 120 0 0 120 0 120 120 0 120 0 0 120 0 120 705 0 705 0 0 -120z
m-2120 -240 l0 -120 -120 0 -120 0 0 -115 0 -115 -120 0 -120 0 0 115 0 115
120 0 120 0 0 120 0 120 120 0 120 0 0 -120z"/>
<path d="M1190 1770 l0 -120 355 0 355 0 0 120 0 120 -355 0 -355 0 0 -120z"/>
<path d="M1190 830 l0 -120 355 0 355 0 0 120 0 120 -355 0 -355 0 0 -120z"/>
</g>
</svg>
