<?xml version="1.0" standalone="no"?>
<!DOCTYPE svg PUBLIC "-//W3C//DTD SVG 20010904//EN"
 "http://www.w3.org/TR/2001/REC-SVG-20010904/DTD/svg10.dtd">
<svg version="1.0" xmlns="http://www.w3.org/2000/svg"
 width="1024.000000pt" height="1024.000000pt" viewBox="0 0 1024.000000 1024.000000"
 preserveAspectRatio="xMidYMid meet">

<g transform="translate(0.000000,1024.000000) scale(0.100000,-0.100000)"
fill="#000000" stroke="none">
<path d="M3389 10228 c-1 -7 -1 -119 0 -248 1 -178 -1 -241 -11 -260 l-14 -25
-559 -5 -560 -5 -5 -262 c-3 -160 -9 -266 -15 -272 -7 -7 -112 -12 -280 -13
l-270 -3 -3 -269 c-1 -178 -6 -274 -13 -283 -9 -10 -68 -13 -280 -13 -176 0
-270 -4 -274 -11 -4 -5 -6 -129 -5 -274 1 -205 -2 -265 -12 -272 -7 -4 -130
-10 -273 -13 l-260 -5 -3 -556 c-2 -502 -4 -558 -19 -570 -12 -11 -72 -15
-267 -16 -138 -2 -254 -3 -259 -3 -4 0 -6 -762 -5 -1692 l3 -1693 259 -3 c175
-1 264 -6 273 -14 11 -9 13 -108 13 -560 -1 -303 1 -552 3 -555 3 -2 121 -5
263 -6 l259 -1 6 29 c4 17 7 141 8 277 1 243 1 247 24 274 21 24 23 32 15 81
-5 30 -7 143 -6 251 3 188 4 197 22 197 19 0 20 -8 18 -200 -2 -110 -5 -225
-9 -256 -5 -50 -3 -58 13 -62 11 -3 253 -9 538 -13 496 -7 520 -8 538 -26 19
-19 20 -33 16 -279 l-3 -259 268 2 268 3 4 555 c5 790 14 1113 28 1122 7 5
127 8 267 7 157 0 268 4 290 10 48 15 519 15 557 0 18 -7 114 -11 276 -10 182
2 252 -1 263 -10 12 -10 14 -56 13 -275 0 -175 3 -269 10 -283 8 -15 10 -104
6 -298 -3 -153 -7 -403 -10 -555 l-6 -277 23 -6 c23 -6 2617 2 3116 9 145 2
266 6 269 10 3 3 5 121 4 262 -2 186 1 259 10 270 9 11 61 14 298 14 210 1
296 4 323 14 22 8 42 10 50 4 7 -5 108 -8 225 -6 117 1 216 -1 220 -6 8 -8 21
-529 14 -553 -2 -10 -61 -13 -252 -13 -267 0 -293 -4 -304 -49 -4 -14 -5 -138
-3 -276 l3 -250 -250 3 c-138 2 -262 1 -276 -3 -45 -11 -50 -38 -49 -302 1
-135 -1 -247 -3 -250 -3 -2 -254 -5 -558 -6 l-554 -2 -14 -29 c-10 -23 -13
-82 -12 -272 1 -143 -2 -245 -7 -248 -5 -3 -763 -6 -1683 -6 -1343 0 -1674 2
-1681 12 -5 7 -8 120 -6 251 2 229 1 238 -19 259 -20 19 -33 20 -284 24 -145
1 -394 6 -554 11 l-290 8 -1 252 c-1 191 -4 256 -14 268 -11 13 -48 15 -284
13 l-271 -3 -3 -259 c-2 -182 1 -263 9 -272 9 -11 64 -14 279 -14 235 0 269
-2 274 -16 3 -9 6 -129 6 -268 0 -183 3 -255 12 -264 9 -9 148 -12 564 -12
431 0 555 -3 561 -12 4 -7 8 -138 9 -291 1 -229 3 -280 15 -288 23 -14 3352
-12 3367 3 9 9 12 89 12 300 l0 288 559 0 c399 0 562 3 567 11 3 6 6 116 5
245 -1 128 1 249 5 269 l6 35 268 0 c235 0 271 2 285 16 14 15 16 47 14 269
-1 138 1 257 5 263 5 9 78 12 265 12 237 0 259 1 274 18 15 16 17 51 17 284
l0 265 90 7 c50 4 171 6 268 5 98 -2 183 1 190 5 10 6 12 130 12 557 -1 302 2
554 5 559 4 6 115 10 289 10 206 0 285 3 294 12 19 19 17 3367 -1 3374 -7 2
-136 6 -285 7 -235 2 -273 4 -287 18 -15 15 -17 72 -15 559 0 398 -2 546 -11
556 -9 11 -58 14 -255 14 -133 0 -254 4 -268 10 l-26 10 0 264 c0 203 -3 266
-13 274 -8 7 -106 12 -269 14 -192 2 -260 6 -270 16 -10 10 -12 71 -9 268 2
189 0 259 -9 269 -10 12 -55 15 -259 15 -135 0 -256 3 -267 6 -40 11 -45 43
-44 296 1 132 -1 242 -3 245 -3 2 -252 4 -553 4 -302 -1 -555 3 -561 7 -9 6
-13 76 -15 272 l-3 265 -1692 3 c-1351 2 -1693 0 -1694 -10z m3354 -567 c5 -5
8 -118 8 -252 -2 -200 1 -248 13 -264 14 -19 26 -20 288 -20 l273 -1 3 -271
c2 -209 5 -273 15 -282 9 -7 107 -12 286 -13 l271 -3 0 -1102 c0 -607 0 -1107
0 -1113 0 -6 -98 -10 -275 -10 -263 0 -275 -1 -285 -20 -7 -13 -10 -196 -10
-556 1 -295 -2 -539 -5 -542 -3 -3 -126 -6 -274 -6 -212 -1 -271 -4 -284 -15
-15 -12 -17 -45 -17 -292 0 -173 -4 -280 -10 -284 -5 -3 -227 -5 -492 -4 -585
3 -577 3 -600 -18 -18 -16 -19 -33 -17 -266 2 -229 1 -250 -15 -259 -17 -10
-1075 -2 -1085 8 -2 2 -3 114 -2 248 l2 243 -27 22 -27 21 -826 0 c-698 0
-830 -2 -847 -14 -18 -13 -19 -32 -24 -271 l-5 -256 -545 0 -545 0 -5 255 c-4
190 -8 258 -18 268 -17 17 -449 24 -495 9 -56 -20 -57 -18 -57 293 0 206 -3
285 -12 294 -9 9 -83 12 -270 12 -142 0 -258 3 -258 8 0 4 0 369 -1 812 l0
805 259 3 c226 2 262 4 273 19 11 13 14 120 16 567 1 303 2 557 3 564 0 11 48
13 260 11 258 -3 260 -3 282 19 22 22 23 27 23 285 l0 262 262 0 c257 0 263 1
285 22 21 22 22 28 22 284 l1 262 550 -2 c434 -1 555 1 575 12 l25 13 3 253
c1 140 6 259 11 265 12 14 3310 11 3324 -3z m-5149 -6237 c20 -7 21 -20 3 -27
-19 -7 -41 8 -33 22 8 13 9 13 30 5z m6991 -4 c7 -11 -12 -40 -25 -40 -11 0
-21 30 -14 41 7 12 31 11 39 -1z m425 -10 c0 -22 -7 -25 -29 -11 -16 10 -6 31
15 31 8 0 14 -9 14 -20z"/>
<path d="M3430 8536 c0 -8 5 -18 10 -21 6 -3 10 3 10 14 0 12 -4 21 -10 21 -5
0 -10 -6 -10 -14z"/>
<path d="M3441 8120 c-9 -32 -11 -80 -2 -80 17 0 20 14 11 50 -4 19 -9 33 -9
30z"/>
<path d="M3425 6810 c-8 -13 3 -50 15 -50 11 0 40 29 40 40 0 17 -45 26 -55
10z"/>
<path d="M1690 6800 c0 -5 9 -10 21 -10 11 0 17 5 14 10 -3 6 -13 10 -21 10
-8 0 -14 -4 -14 -10z"/>
<path d="M2121 6801 c-11 -7 -5 -11 22 -16 36 -7 57 -1 57 16 0 12 -60 12 -79
0z"/>
<path d="M1138 2313 l-38 -4 0 -244 c0 -134 -3 -250 -6 -258 -3 -9 4 -25 15
-36 20 -20 31 -21 280 -21 227 0 260 2 265 16 3 9 6 130 6 269 0 217 -2 256
-16 269 -13 14 -48 16 -242 14 -125 -1 -244 -3 -264 -5z"/>
<path d="M2843 2297 c-10 -17 -8 -527 2 -529 6 -2 373 -2 817 0 622 2 807 5
810 15 1 7 1 125 -2 262 l-5 250 -250 -2 c-137 -1 -367 -5 -510 -8 -166 -4
-281 -3 -315 4 -67 12 -540 19 -547 8z"/>
</g>
</svg>
